<svg width="3632" height="1301" xmlns="http://www.w3.org/2000/svg" xmlns:xlink="http://www.w3.org/1999/xlink" xml:space="preserve" overflow="hidden"><g transform="translate(-461 -494)"><path d="M1410.5 1443.5 3060.5 1443.5" stroke="#084F6A" stroke-width="143.229" stroke-linecap="round" stroke-miterlimit="8" fill="none" fill-rule="evenodd"/><path d="M1333.5 1454.5C1333.5 1409.77 1369.99 1373.5 1415 1373.5 1460.01 1373.5 1496.5 1409.77 1496.5 1454.5 1496.5 1499.24 1460.01 1535.5 1415 1535.5 1369.99 1535.5 1333.5 1499.24 1333.5 1454.5Z" stroke="#084F6A" stroke-width="0" stroke-miterlimit="8" fill="#084F6A" fill-rule="evenodd"/><g><g><g><path d="M1082.5 460.062 1082.5 175.906 991.841 266.566C901.181 185.378 780.753 135.312 649.5 135.312 365.344 135.312 135.312 365.344 135.312 649.5 135.312 933.656 365.344 1163.69 649.5 1163.69 791.578 1163.69 920.125 1105.5 1013.49 1013.49L898.475 898.475C834.878 962.072 746.925 1001.31 649.5 1001.31 456.003 1001.31 297.688 842.997 297.688 649.5 297.688 456.003 456.003 297.688 649.5 297.688 736.1 297.688 815.934 328.809 876.825 381.581L798.344 460.062 1082.5 460.062Z" fill="#084F6A" transform="matrix(1 0 0 1.00154 461 494)"/></g></g></g><text font-family="IBM Plex Sans,IBM Plex Sans_MSFontService,sans-serif" font-weight="700" font-size="458" transform="matrix(1 0 0 1 866.373 1320)">ONE</text><text fill="#7F7F7F" font-family="IBM Plex Sans,IBM Plex Sans_MSFontService,sans-serif" font-weight="700" font-size="403" transform="matrix(1 0 0 1 1837.73 1302)">Source</text><text fill="#7F7F7F" font-family="Inter ExtraLight,Inter ExtraLight_MSFontService,sans-serif" font-weight="700" font-size="303" transform="matrix(1 0 0 1 3151.43 1302)">-</text><text fill="#7F7F7F" font-family="IBM Plex Sans,IBM Plex Sans_MSFontService,sans-serif" font-style="italic" font-weight="700" font-size="403" transform="matrix(1 0 0 1 3286.64 1302)">ai</text></g></svg>